<?xml version="1.0" encoding="UTF-8"?>
<svg xmlns="http://www.w3.org/2000/svg" viewBox="0 0 1024 640" fill="none">
  <g stroke="#b08a45" stroke-width="2.4" stroke-linecap="round" stroke-linejoin="round">
    <path d="M534.0 148.0 C539.0 149.3, 556.8 145.7, 564.0 156.0 C571.2 166.3, 572.8 198.2, 577.0 210.0 C581.2 221.8, 585.0 231.7, 589.0 227.0 C593.0 222.3, 596.7 161.8, 601.0 182.0 C605.3 202.2, 610.8 341.9, 615.0 348.0 C619.2 354.1, 622.2 233.3, 626.0 218.5 C629.8 203.7, 634.0 252.8, 638.0 259.0 C642.0 265.2, 646.0 256.8, 650.0 255.5 C654.0 254.2, 658.0 252.7, 662.0 251.5 C666.0 250.3, 670.2 249.0, 674.0 248.5 C677.8 248.0, 681.2 248.3, 685.0 248.5 C688.8 248.7, 693.0 248.8, 697.0 249.5 C701.0 250.2, 705.0 251.7, 709.0 253.0 C713.0 254.3, 717.0 255.8, 721.0 257.5 C725.0 259.2, 729.2 261.6, 733.0 263.5 C736.8 265.4, 740.2 267.2, 744.0 269.0 C747.8 270.8, 752.0 272.5, 756.0 274.0 C760.0 275.5, 764.0 277.1, 768.0 278.0 C772.0 278.9, 776.0 279.2, 780.0 279.5 C784.0 279.8, 788.0 279.9, 792.0 280.0 C796.0 280.1, 802.0 280.0, 804.0 280.0"/>
    <path d="M534.0 273.0 C539.0 253.5, 556.8 155.4, 564.0 156.0 C571.2 156.6, 572.8 252.3, 577.0 276.5 C581.2 300.7, 585.0 303.4, 589.0 301.0 C593.0 298.6, 596.7 254.2, 601.0 262.0 C605.3 269.8, 610.8 346.6, 615.0 348.0 C619.2 349.4, 622.2 282.9, 626.0 270.5 C629.8 258.1, 634.0 272.7, 638.0 273.5 C642.0 274.3, 646.0 274.3, 650.0 275.5 C654.0 276.7, 658.0 278.7, 662.0 280.5 C666.0 282.3, 670.2 284.6, 674.0 286.5 C677.8 288.4, 681.2 290.3, 685.0 292.0 C688.8 293.7, 693.0 295.2, 697.0 296.5 C701.0 297.8, 705.0 299.2, 709.0 300.0 C713.0 300.8, 717.0 301.0, 721.0 301.0 C725.0 301.0, 729.2 300.8, 733.0 300.0 C736.8 299.2, 740.2 297.8, 744.0 296.5 C747.8 295.2, 752.0 295.1, 756.0 292.0 C760.0 288.9, 764.0 280.1, 768.0 278.0 C772.0 275.9, 776.0 279.2, 780.0 279.5 C784.0 279.8, 788.0 279.9, 792.0 280.0 C796.0 280.1, 802.0 280.0, 804.0 280.0"/>
    <path d="M211.0 279.0 C213.0 279.2, 218.8 279.8, 223.0 280.0 C227.2 280.2, 231.8 280.2, 236.0 280.0 C240.2 279.8, 243.8 279.7, 248.0 279.0 C252.2 278.3, 256.8 277.2, 261.0 276.0 C265.2 274.8, 268.8 273.7, 273.0 272.0 C277.2 270.3, 281.8 268.1, 286.0 266.0 C290.2 263.9, 293.8 261.4, 298.0 259.5 C302.2 257.6, 306.8 256.0, 311.0 254.5 C315.2 253.0, 318.8 251.5, 323.0 250.5 C327.2 249.5, 331.8 248.8, 336.0 248.5 C340.2 248.2, 343.8 248.1, 348.0 248.5 C352.2 248.9, 356.8 249.9, 361.0 251.0 C365.2 252.1, 368.8 254.2, 373.0 255.0 C377.2 255.8, 381.8 262.3, 386.0 256.0 C390.2 249.7, 393.8 214.1, 398.0 217.0 C402.2 219.9, 406.7 279.5, 411.0 273.5 C415.3 267.5, 419.7 189.4, 424.0 181.0 C428.3 172.6, 432.8 225.8, 437.0 223.0 C441.2 220.2, 444.8 175.3, 449.0 164.0 C453.2 152.7, 455.2 157.7, 462.0 155.0 C468.8 152.3, 485.3 149.2, 490.0 148.0"/>
    <path d="M211.0 279.0 C213.0 279.2, 218.8 279.8, 223.0 280.0 C227.2 280.2, 231.8 280.2, 236.0 280.0 C240.2 279.8, 243.8 277.5, 248.0 279.0 C252.2 280.5, 256.8 286.4, 261.0 289.0 C265.2 291.6, 268.8 292.8, 273.0 294.5 C277.2 296.2, 281.8 298.0, 286.0 299.0 C290.2 300.0, 293.8 300.2, 298.0 300.5 C302.2 300.8, 306.8 301.0, 311.0 300.5 C315.2 300.0, 318.8 298.8, 323.0 297.5 C327.2 296.2, 331.8 294.8, 336.0 293.0 C340.2 291.2, 343.8 289.1, 348.0 287.0 C352.2 284.9, 356.8 282.2, 361.0 280.5 C365.2 278.8, 368.8 277.7, 373.0 276.5 C377.2 275.3, 381.8 274.5, 386.0 273.5 C390.2 272.5, 393.8 270.5, 398.0 270.5 C402.2 270.5, 406.7 276.3, 411.0 273.5 C415.3 270.7, 419.7 248.4, 424.0 253.5 C428.3 258.6, 432.8 300.0, 437.0 304.0 C441.2 308.0, 444.8 302.3, 449.0 277.5 C453.2 252.7, 455.2 156.7, 462.0 155.0 C468.8 153.3, 485.3 248.8, 490.0 267.5"/>
  </g>
  <g stroke="#9a7340" stroke-width="1.7" stroke-linecap="round">
    <line x1="512" y1="52" x2="512" y2="220"/>
    <line x1="512" y1="260" x2="512" y2="428"/>
  </g>
  <g fill="#9a7340">
    <circle cx="512" cy="40" r="3.1"/>
    <circle cx="512" cy="26" r="2.5"/>
    <circle cx="512" cy="14" r="1.9"/>
    <circle cx="512" cy="440" r="3.1"/>
    <circle cx="512" cy="454" r="2.5"/>
    <circle cx="512" cy="466" r="1.9"/>
  </g>
  <circle cx="512" cy="240" r="19" fill="#c4a06a"/>
</svg>
